HIERARCHY
ROOT pelvis
{
  OFFSET 0 100 0
  CHANNELS 6 Xposition Yposition Zposition Zrotation Xrotation Yrotation
  JOINT pelvis_right_femur
  {
    OFFSET -10.78128 -3.44521 -0.5502486
    CHANNELS 3 Zrotation Xrotation Yrotation
    JOINT right_femur_tibia
    {
      OFFSET -0.8047443 -44.0398 -0.1307829
      CHANNELS 3 Zrotation Xrotation Yrotation
      JOINT right_tibia_foot
      {
        OFFSET 3.006224 -47.83518 -5
        CHANNELS 3 Zrotation Xrotation Yrotation
        End Site
        {
          OFFSET 0 -5 15
        }
      }
    }
  }
  JOINT pelvis_left_femur
  {
    OFFSET 10.78128 -3.44521 -0.5502486
    CHANNELS 3 Zrotation Xrotation Yrotation
    JOINT left_femur_tibia
    {
      OFFSET 0.8047443 -44.0398 -0.1307829
      CHANNELS 3 Zrotation Xrotation Yrotation
      JOINT left_tibia_foot
      {
        OFFSET -4.370144 -48.10324 -4.275266
        CHANNELS 3 Zrotation Xrotation Yrotation
        End Site
        {
          OFFSET 0 -5 15
        }
      }
    }
  }
  JOINT pelvis_spine1
  {
    OFFSET 0 6.468898 -3.129235
    CHANNELS 3 Zrotation Xrotation Yrotation
    JOINT spine1
    {
      OFFSET 0 23.15396 4.99043
      CHANNELS 3 Zrotation Xrotation Yrotation
      JOINT spine2
      {
        OFFSET 0 20.79997 -5.064912
        CHANNELS 3 Zrotation Xrotation Yrotation
        JOINT neck
        {
          OFFSET 0 14.38658 9.616178
          CHANNELS 3 Zrotation Xrotation Yrotation
          End Site
          {
            OFFSET 0 20 0
          }
        }
      }
      JOINT right_manubrium
      {
        OFFSET -5.722621 16.35077 3.967754
        CHANNELS 3 Zrotation Xrotation Yrotation
        JOINT right_clavicle
        {
          OFFSET -13.16364 1.694482 -4.693211
          CHANNELS 3 Zrotation Xrotation Yrotation
          JOINT right_humerus
          {
            OFFSET -28.5034 -0.3100689 -2.792744
            CHANNELS 3 Zrotation Xrotation Yrotation
            JOINT right_radius
            {
              OFFSET -25.15693 0.02248979 -1.271978
              CHANNELS 3 Zrotation Xrotation Yrotation
              End Site
              {
                OFFSET -15 0 0
              }
            }
          }
        }
      }
      JOINT left_manubrium
      {
        OFFSET 5.722621 16.35077 3.967754
        CHANNELS 3 Zrotation Xrotation Yrotation
        JOINT left_clavicle
        {
          OFFSET 13.16364 1.694482 -4.693211
          CHANNELS 3 Zrotation Xrotation Yrotation
          JOINT left_humerus
          {
            OFFSET 29.39168 -1.063119 -2.237045
            CHANNELS 3 Zrotation Xrotation Yrotation
            JOINT left_radius
            {
              OFFSET 24.59957 -0.9528479 0.9047498
              CHANNELS 3 Zrotation Xrotation Yrotation
              End Site
              {
                OFFSET 15 -0 -0
              }
            }
          }
        }
      }
    }
  }
}
MOTION
Frames: 16
Frame Time: 0.0416666666667
33.03154 105.2671 239.3863 1.436318 -6.965822 3.063041 1.34401 10.23662 6.983509 -4.006575e-07 36.58995 -2.622311e-06 4.699801 -10.20904 -3.593234 -2.419067 -16.23573 -8.008611 6.888511e-07 20.28378 3.273816e-06 -6.377894 -10.05433 18.80163 -1.237235 0.1340889 8.223204 -1.282613 9.920213 -2.908375 2.778606 21.93201 5.050651 1.359629 -17.26717 8.516233 2.25014 -21.21158 10.48225 81.49007 23.76296 -6.975274 -1.114263e-06 2.115633e-06 24.70977 -23.9604 13.34804 12.71297 4.058492 -14.5175 -3.052751 -94.33751 23.17369 26.6302 4.150309e-07 8.288018e-07 -9.240858 -1.149603 7.35939 16.59334
34.47845 105.7079 245.36 1.668024 -7.53077 3.473828 0.8819308 7.824467 7.029888 -7.794448e-08 43.59644 -2.067725e-06 4.423003 -8.259838 -4.303145 -3.469076 -12.80487 -8.979172 1.690363e-06 21.33922 1.421865e-07 -5.937788 -10.60839 18.58421 -1.563264 0.1598252 7.588686 -1.326333 10.00073 -3.12901 2.77897 22.21486 5.183086 1.376495 -17.03793 8.676743 2.641605 -20.30555 10.41888 82.03212 24.11998 -7.928521 -1.215235e-06 1.971268e-06 23.12424 -23.36227 13.18101 12.10608 3.793269 -14.57907 -3.307632 -93.16482 23.85222 25.04529 1.452169e-07 7.113712e-07 -9.408013 -0.9179116 7.568928 16.33805
35.87853 106.467 251.0319 1.894119 -8.115423 4.140736 0.5071803 4.095263 6.953086 -1.370686e-07 50.12231 -1.098101e-06 4.20225 -7.053392 -5.260781 -4.395327 -8.269987 -9.88824 3.153182e-06 21.2912 -4.05641e-06 -5.519368 -11.58181 18.09115 -1.879962 0.2259199 6.781985 -1.290125 10.00765 -3.548718 2.793736 22.59436 5.254872 1.251122 -16.72475 8.913226 2.942575 -19.34961 10.31155 83.2286 24.4289 -9.381941 -1.291551e-06 1.684677e-06 21.48575 -22.58979 13.1751 11.37188 3.60787 -14.87652 -3.626302 -91.88106 24.58116 22.90359 -2.994521e-07 5.481446e-07 -10.3036 -0.5571869 7.899284 15.93132
37.17858 107.3442 256.2465 2.092572 -8.539769 5.001475 0.3644159 -0.6469408 6.662517 -5.073065e-07 54.01397 2.205777e-07 3.656728 -7.130786 -6.147384 -5.085604 -3.313082 -10.7421 4.547707e-06 20.53572 -8.459905e-06 -4.917058 -12.81719 17.50427 -2.154931 0.341371 5.881784 -1.115552 9.869597 -4.109262 2.780548 22.95966 5.238334 1.042479 -16.38463 9.098294 3.096159 -18.35224 10.16184 84.30745 24.74917 -11.07613 -1.239338e-06 1.182219e-06 19.68304 -21.2473 13.07013 10.29013 3.55788 -15.41474 -3.93178 -90.07047 25.33248 20.14659 -8.322233e-07 3.089804e-07 -11.93948 0.05591167 8.544589 15.0494
38.39477 108.1437 261.2078 2.199265 -8.579053 5.959549 0.415703 -5.538528 6.168977 -8.148705e-07 54.47238 1.057035e-06 3.148323 -7.410348 -6.844323 -5.445563 1.392561 -11.30574 5.138762e-06 18.77084 -1.108649e-05 -4.528376 -14.28037 16.889 -2.30891 0.4182252 5.053766 -0.8640944 9.6389 -4.681646 2.782802 23.21014 5.226833 0.8736222 -16.20009 9.270747 3.042644 -17.51284 9.973973 85.49196 24.88686 -12.785 -1.149271e-06 8.23207e-07 18.07866 -20.14942 12.97486 9.402261 3.783544 -16.10962 -4.161262 -88.50348 25.74615 17.41333 -1.198435e-06 1.785132e-07 -13.94997 0.7417651 9.164341 14.05049
39.50663 108.6168 265.9618 2.308851 -8.316749 6.912746 0.55535 -10.26522 5.559697 -3.532146e-07 51.11069 9.379665e-07 2.628297 -8.125362 -7.312056 -5.594076 5.430824 -11.67364 4.436546e-06 16.3578 -1.176814e-05 -4.030577 -15.96675 16.61545 -2.460809 0.4765684 4.361399 -0.5453828 9.329339 -5.215199 2.782278 23.33895 5.221195 0.7966797 -16.05383 9.351402 2.8506 -16.74539 9.770015 86.22595 24.99268 -14.33313 -9.056141e-07 4.77186e-07 16.50727 -19.189 12.76772 8.602778 4.291688 -16.93827 -4.290139 -86.79704 25.91803 14.43949 -1.296611e-06 6.050449e-08 -16.29104 1.460028 9.780711 12.84634
40.52115 108.6675 270.7609 2.30105 -7.748306 7.749874 0.8297089 -14.68602 4.90636 5.496466e-08 44.82098 5.076961e-07 2.191732 -8.651518 -7.691693 -5.52628 9.072792 -11.7558 3.216373e-06 14.0967 -1.04732e-05 -3.857766 -17.61365 16.39615 -2.513199 0.4914157 3.762695 -0.1726729 8.959994 -5.719317 2.810972 23.36534 5.230633 0.8039471 -16.03042 9.396417 2.560368 -15.99742 9.540725 86.97876 25.05409 -15.85135 -6.584196e-07 2.678433e-07 14.9269 -18.57933 12.62605 8.055901 5.010253 -17.83312 -4.305559 -85.39388 25.8129 11.51461 -1.143999e-06 2.638177e-08 -18.71828 2.12694 10.23238 11.70691
41.43718 108.2403 275.7422 2.234973 -7.06848 8.412954 1.15706 -18.48083 4.29485 3.296316e-07 36.83516 2.734609e-08 1.791592 -9.150134 -8.016482 -5.340608 12.09375 -11.64425 1.785374e-06 12.42859 -7.977283e-06 -3.888556 -19.08525 16.32457 -2.524052 0.5006342 3.275706 0.2106706 8.570922 -6.159625 2.862917 23.37932 5.23835 0.8741161 -16.05537 9.40071 2.245928 -15.26691 9.321267 87.70585 25.15433 -17.24692 -4.038998e-07 9.800554e-08 13.35535 -18.23796 12.52672 7.700028 5.82422 -18.72042 -4.228411 -84.31978 25.58191 8.728816 -8.173065e-07 6.991613e-09 -21.03193 2.703914 10.56256 10.68204
42.19683 107.3463 280.7249 2.219363 -6.558834 8.902146 1.414572 -21.81957 3.692916 6.274082e-07 29.15698 -2.214401e-07 1.106525 -9.991724 -8.261348 -5.210573 14.61433 -11.60956 4.97804e-07 11.72911 -5.984687e-06 -3.710679 -20.33033 16.45828 -2.588468 0.5823276 2.820552 0.5667276 8.184165 -6.524773 2.896602 23.48594 5.212332 0.9577367 -15.99876 9.335847 1.980801 -14.46522 9.137372 88.09338 25.40195 -18.46718 -1.104446e-07 -2.366428e-07 11.60535 -17.65312 12.23567 7.171109 6.54921 -19.55006 -4.143776 -83.0445 25.42406 5.842444 -5.403567e-07 -1.106885e-07 -23.16669 3.354315 11.0282 9.494616
42.82122 106.1932 285.8267 2.069657 -6.145842 9.219386 1.737933 -24.30194 3.21647 2.349706e-07 23.05301 1.572127e-07 0.2578392 -10.58938 -8.54636 -5.007119 16.78647 -11.51583 2.87897e-07 12.4239 -4.431905e-06 -3.982283 -20.89963 16.25369 -2.518729 0.674484 2.360323 0.8803638 7.795578 -6.819792 2.946285 23.63652 5.129419 0.9900705 -16.00644 9.277455 1.776005 -13.67329 8.956408 88.64716 25.687 -19.50257 -3.721225e-09 -5.314846e-07 9.934358 -17.02923 12.01092 6.721901 7.034257 -20.14005 -4.025117 -82.19135 25.33309 3.593343 -3.99075e-07 -1.739653e-07 -24.605 3.93515 11.43142 8.564787
43.33643 105.016 291.0781 1.822518 -5.914115 9.422576 2.119082 -25.72391 2.971992 -6.897171e-07 19.60471 1.114117e-06 -0.7515145 -10.98288 -8.870252 -4.765321 18.50105 -11.46398 1.21321e-06 14.36748 -3.816574e-06 -4.522763 -20.68811 15.76274 -2.335719 0.7431655 1.917921 1.128157 7.467266 -7.038654 2.9936 23.78315 4.974727 0.9441976 -16.05332 9.213014 1.672188 -12.9872 8.797715 89.18248 25.99361 -20.24006 -9.070508e-08 -7.978355e-07 8.523305 -16.24927 11.84404 6.299743 7.168453 -20.41438 -3.910313 -81.66557 25.35406 2.229916 -4.436678e-07 -1.894735e-07 -25.10999 4.41129 11.79956 7.928778
43.83638 104.1605 296.7112 1.451562 -5.875047 9.576567 2.604581 -25.86059 3.113266 -2.412221e-06 19.84168 2.658444e-06 -1.651663 -10.38657 -9.337759 -4.510278 20.0063 -11.44421 3.460527e-06 17.86885 -3.623646e-06 -5.588111 -19.6 14.95746 -1.992807 0.7155102 1.500527 1.28057 7.27327 -7.171922 3.088365 23.92066 4.78415 0.8446246 -16.21912 9.221752 1.710771 -12.4442 8.658536 90.15021 26.17928 -20.76419 -4.799084e-07 -8.208798e-07 7.496114 -15.6327 11.91142 6.102628 6.927653 -20.29823 -3.806038 -82.00994 25.51576 2.156363 -5.725217e-07 -6.302272e-08 -24.33178 4.601628 11.97486 7.932082
44.32539 103.8083 302.5911 1.15097 -6.145815 9.688396 3.183795 -24.66453 3.592423 -4.30751e-06 22.09181 4.508288e-06 -2.627731 -9.764577 -9.740664 -4.290709 20.56135 -11.52299 6.161e-06 23.11012 -3.863404e-06 -6.43419 -17.82522 14.45152 -1.619964 0.6564098 1.25897 1.347629 7.270076 -7.169192 3.184966 24.03745 4.534362 0.7410656 -16.34038 9.170462 1.844899 -12.08548 8.609874 90.74084 26.30575 -20.92182 -9.419687e-07 -8.305292e-07 6.791052 -14.85522 11.91396 5.794002 6.404414 -19.93952 -3.748517 -82.56434 25.7481 2.908185 -7.032594e-07 3.761993e-08 -22.67223 4.651316 12.18135 8.109037
44.81874 104.0455 308.6725 0.9361056 -6.640878 9.683727 3.874805 -21.89834 4.311799 -6.239731e-06 24.49496 6.296494e-06 -3.527432 -9.356458 -9.9705 -4.047952 19.60329 -11.5544 8.779885e-06 30.17804 -3.510843e-06 -7.228043 -15.55385 14.45162 -1.205492 0.6246885 1.325035 1.325007 7.420455 -6.958283 3.32331 24.23224 4.261806 0.698019 -16.46674 9.089492 1.994951 -11.97473 8.677261 91.16308 26.33225 -20.68291 -1.411347e-06 -7.625256e-07 6.526227 -14.2422 11.86493 5.524862 5.79546 -19.41642 -3.67457 -83.82786 26.06866 4.508097 -6.788363e-07 1.268889e-07 -20.38225 4.489177 12.37553 8.536788
45.22994 104.6829 314.4748 1.101103 -7.531603 9.508685 4.321568 -17.84249 4.990582 -6.88267e-06 26.0952 7.188668e-06 -4.421278 -10.10706 -9.833073 -3.962537 16.55545 -11.70877 9.789911e-06 37.45453 -2.844719e-06 -7.120036 -13.5566 15.59384 -1.032318 0.744251 1.788477 1.162915 7.725131 -6.461282 3.461395 24.60781 3.99615 0.7652053 -16.34645 8.910428 2.087292 -12.16284 8.902679 90.68474 26.29872 -19.79443 -1.579986e-06 -8.767152e-07 6.710974 -13.68348 11.383 5.076958 5.288161 -18.88736 -3.648682 -85.07928 26.47048 6.196303 -4.606773e-07 2.604869e-08 -18.0483 4.298724 12.81247 8.682541
45.54464 105.5577 319.8661 1.392586 -8.383461 9.105268 4.529641 -13.08085 5.4551 -6.562483e-06 26.27478 7.145581e-06 -5.15293 -11.24835 -9.358602 -3.92109 12.16007 -11.77966 9.094645e-06 43.48872 -1.107092e-06 -6.664074 -11.91816 17.23823 -1.003505 0.9076267 2.499703 0.930792 8.070719 -5.814705 3.570271 25.00364 3.800522 0.936837 -16.21121 8.678875 2.102755 -12.62961 9.197359 89.74001 26.27233 -18.4623 -1.533132e-06 -1.001305e-06 7.306917 -13.52305 10.76177 4.83628 4.963614 -18.40363 -3.601557 -86.47663 26.76409 8.05602 -8.66907e-08 -1.195379e-07 -15.8668 4.080309 13.25682 8.736453
